<?xml version="1.0" standalone="no"?>
<!DOCTYPE svg PUBLIC "-//W3C//DTD SVG 20010904//EN"
 "http://www.w3.org/TR/2001/REC-SVG-20010904/DTD/svg10.dtd">
<svg version="1.0" xmlns="http://www.w3.org/2000/svg"
 width="260.000000pt" height="260.000000pt" viewBox="0 0 260.000000 260.000000"
 preserveAspectRatio="xMidYMid meet">
<metadata>
Created by potrace 1.14, written by Peter Selinger 2001-2017
</metadata>
<g transform="translate(0.000000,260.000000) scale(0.100000,-0.100000)"
fill="#000000" stroke="none">
<path d="M1260 2573 c-14 -1 -65 -8 -115 -14 -125 -15 -257 -60 -415 -140
-126 -63 -143 -76 -267 -191 -164 -154 -243 -268 -321 -463 -41 -105 -57 -160
-78 -285 -52 -307 -16 -551 118 -799 74 -136 169 -241 343 -383 124 -101 301
-198 420 -230 110 -29 370 -43 553 -28 152 11 153 12 264 62 61 28 138 66 170
84 34 19 74 34 92 34 18 0 59 9 92 20 50 18 74 35 161 122 111 111 122 133
103 211 -9 34 -8 55 3 98 7 30 12 71 9 91 -3 26 2 47 16 70 12 19 41 108 66
199 44 158 46 173 46 295 0 170 -20 292 -66 410 -32 83 -56 121 -176 280
l-139 184 -177 126 c-187 133 -237 161 -367 199 -44 13 -93 28 -110 33 -32 11
-183 21 -225 15z m224 -49 c256 -49 530 -218 725 -448 135 -159 217 -317 258
-501 22 -98 23 -384 0 -482 -19 -88 -77 -235 -94 -241 -20 -6 -16 55 7 116 11
30 16 51 11 48 -5 -4 -15 -22 -21 -42 l-12 -35 -29 38 c-15 21 -29 44 -29 52
0 7 -6 11 -15 7 -8 -3 -29 8 -47 25 -26 24 -39 29 -62 25 -16 -3 -40 -7 -55
-8 -14 0 -5 -4 22 -7 26 -3 46 -10 45 -14 -2 -4 15 -16 37 -26 42 -19 67 -47
79 -91 7 -23 6 -22 -12 5 -10 17 -28 38 -38 47 -25 22 -87 48 -115 48 -34 0
-85 -29 -97 -54 -13 -30 -71 -41 -89 -17 -15 19 -17 127 -3 136 6 4 10 -14 10
-45 0 -63 13 -62 54 4 39 64 49 122 28 158 -9 16 -24 31 -34 34 -22 7 -24 24
-3 24 9 0 15 9 15 24 0 13 7 29 16 36 12 11 14 28 9 93 -3 52 -1 84 6 93 9 11
7 15 -5 20 -10 4 -16 18 -16 35 0 16 -4 29 -9 29 -5 0 -17 21 -27 48 -18 47
-42 75 -56 66 -5 -3 -8 0 -8 7 0 7 -3 10 -6 7 -3 -4 -21 11 -41 33 l-35 39 12
52 c7 29 21 60 31 68 14 12 18 30 19 90 1 78 -7 123 -20 115 -11 -7 -7 29 5
37 6 5 2 8 -7 8 -10 0 -29 18 -43 40 -34 54 -40 51 -8 -6 23 -41 25 -53 21
-130 -3 -49 -10 -90 -17 -97 -10 -10 -11 -6 -5 18 5 17 9 59 9 95 0 53 -5 73
-27 112 -49 82 -166 146 -241 131 -71 -13 -130 -57 -147 -107 -9 -27 -14 -31
-48 -31 -33 0 -37 3 -37 25 0 19 -5 24 -20 22 -11 -1 -32 -4 -47 -6 -15 -2
-35 -9 -43 -16 -14 -11 -18 -11 -25 -1 -5 8 -10 9 -14 3 -7 -11 -59 -9 -88 3
-14 5 -18 2 -18 -13 0 -27 -51 -38 -64 -14 -20 38 -87 91 -122 98 -101 19
-179 -21 -226 -116 -66 -132 -55 -227 38 -306 52 -45 52 -46 33 -65 -13 -13
-33 -19 -65 -19 l-46 0 17 -26 c15 -23 15 -27 0 -50 -8 -13 -24 -24 -34 -24
-30 0 -45 -25 -26 -43 14 -14 13 -19 -6 -51 -27 -46 -19 -99 22 -156 30 -41
31 -60 3 -60 -24 0 -16 -19 16 -35 l31 -16 -51 -56 c-31 -36 -48 -63 -45 -73
3 -9 -4 -25 -15 -35 -24 -22 -26 -43 -4 -52 11 -4 13 -13 9 -34 -5 -22 -3 -29
9 -29 11 0 16 -9 16 -28 0 -33 41 -76 88 -93 25 -9 31 -15 28 -32 -3 -12 -7
-41 -10 -64 -4 -23 -15 -57 -26 -76 -31 -52 -46 -125 -39 -179 11 -70 57 -164
98 -199 20 -17 48 -41 63 -54 14 -12 40 -26 57 -30 17 -4 31 -11 31 -16 0 -22
-62 7 -138 64 -40 30 -60 55 -88 113 -34 69 -38 73 -54 59 -10 -9 -35 -19 -55
-22 -34 -5 -38 -4 -32 11 4 10 7 22 7 27 0 5 11 7 24 3 39 -9 66 25 64 83 0
26 -3 42 -5 35 -4 -9 -8 -10 -18 -2 -11 9 -10 16 1 40 19 36 9 76 -19 84 -34
9 -72 7 -84 -5 -7 -7 -21 -3 -48 15 -46 31 -45 31 -80 4 -24 -19 -27 -26 -22
-65 4 -38 1 -46 -21 -63 -14 -11 -22 -23 -18 -27 3 -4 20 6 36 22 26 25 29 34
24 62 -5 25 -2 39 11 53 23 26 34 25 65 -5 24 -23 27 -24 65 -10 37 12 42 12
59 -5 19 -19 19 -21 4 -54 -16 -32 -16 -35 3 -52 13 -12 19 -28 17 -48 -3 -29
-6 -31 -40 -30 -33 1 -38 -2 -38 -20 0 -70 -71 -74 -91 -6 -10 32 -16 39 -30
35 -11 -4 -26 2 -38 14 -12 12 -21 18 -21 14 0 -12 43 -53 57 -53 7 0 13 -7
13 -16 0 -27 178 -201 273 -265 48 -34 120 -76 160 -94 195 -90 463 -115 755
-71 96 15 186 51 304 122 53 32 59 34 79 20 20 -14 18 -16 -57 -60 -98 -58
-204 -99 -314 -123 -122 -26 -449 -26 -570 1 -224 49 -440 180 -625 379 -276
296 -375 647 -295 1045 100 498 400 839 870 991 193 61 334 71 524 35z m124
-235 c-42 -22 -62 -51 -53 -79 4 -13 -1 -22 -15 -30 -16 -9 -20 -8 -20 5 0 20
-19 19 -44 -2 -16 -14 -18 -15 -8 -2 13 18 6 53 -9 43 -19 -11 -8 23 14 44 31
30 64 41 122 41 l50 0 -37 -20z m-634 -48 c17 -17 25 -31 18 -31 -6 0 -14 5
-17 10 -4 6 -11 8 -16 4 -5 -3 -7 -10 -4 -15 4 -5 1 -9 -6 -9 -8 0 -8 -4 1
-15 7 -9 10 -19 6 -23 -4 -4 -15 4 -25 17 -18 23 -18 24 1 43 20 20 20 20 -4
45 -20 22 -20 24 -3 15 11 -6 33 -24 49 -41z m-80 3 c17 -16 22 -39 7 -30 -5
4 -7 -4 -3 -16 4 -16 2 -19 -8 -13 -10 6 -12 2 -7 -16 6 -25 3 -22 -30 28 -12
17 -12 17 -6 -1 3 -10 0 -22 -8 -27 -11 -7 -12 -12 -1 -29 16 -27 15 -35 -3
-20 -13 11 -14 10 -10 -2 3 -8 1 -27 -5 -43 -13 -34 -2 -45 51 -45 19 0 41 -6
48 -12 23 -22 1 33 -26 66 -27 32 -25 43 7 26 11 -6 28 -10 38 -8 9 1 23 -2
31 -7 10 -5 16 -4 19 4 3 9 7 9 18 0 11 -9 14 -7 14 14 0 28 41 67 71 67 11 0
19 7 19 15 0 17 16 20 25 5 3 -5 12 -7 20 -3 9 3 15 -1 15 -8 1 -10 4 -8 11 3
8 14 13 16 29 6 14 -9 22 -9 36 3 16 13 17 12 12 -13 -3 -17 -1 -25 5 -21 6 4
8 -2 5 -15 -4 -13 0 -23 11 -28 27 -12 41 -13 35 -3 -8 14 45 61 63 57 9 -2
20 -13 24 -26 6 -15 5 -21 -1 -17 -6 3 -10 13 -10 21 0 17 -31 15 -31 -1 -1
-5 -5 -16 -11 -23 -8 -9 -7 -11 5 -7 8 4 18 2 22 -4 8 -14 42 -14 47 0 2 5 11
11 19 12 9 2 27 16 41 31 l24 29 -4 -39 -5 -38 26 29 c27 32 46 30 28 -3 -5
-10 -7 -29 -4 -41 l5 -22 35 21 34 20 -6 -22 c-4 -13 -20 -44 -35 -70 -16 -27
-25 -48 -20 -48 5 0 11 4 14 9 3 5 15 11 26 14 17 4 19 3 9 -9 -15 -18 -4 -46
18 -42 12 2 19 -4 21 -19 4 -24 16 -30 27 -12 4 6 13 8 20 5 7 -2 18 1 25 7
10 10 11 6 6 -17 l-7 -29 32 32 c17 18 33 30 36 28 2 -3 -12 -31 -32 -63 -39
-66 -42 -76 -19 -67 14 5 15 3 4 -16 -15 -29 -8 -36 22 -20 20 11 22 11 10 -4
-11 -13 -10 -16 10 -22 13 -4 32 -15 43 -25 11 -10 29 -21 41 -24 16 -5 20
-13 18 -32 -1 -15 4 -28 12 -31 8 -3 14 -11 14 -18 0 -16 58 -47 65 -35 3 4
-10 21 -27 36 -22 18 -33 36 -33 53 0 19 -8 30 -30 41 -61 32 -85 52 -85 75 0
14 -7 25 -20 28 -20 5 -20 8 12 74 40 83 37 78 44 70 3 -3 -8 -34 -25 -68 -17
-34 -31 -63 -31 -64 0 -2 9 -5 20 -8 11 -3 20 -13 20 -23 0 -23 29 -54 50 -54
26 0 81 -66 76 -92 0 -3 10 -18 22 -31 17 -18 22 -31 17 -47 -5 -14 -3 -20 3
-16 6 4 8 -2 5 -15 -3 -11 -12 -23 -19 -26 -20 -7 -17 -22 8 -43 22 -18 22
-19 6 -54 -10 -19 -30 -42 -46 -50 l-29 -15 23 -48 c13 -26 30 -74 38 -107 13
-50 13 -60 1 -72 -7 -8 -20 -14 -27 -14 -8 1 -6 6 6 15 18 14 18 16 1 77 -19
69 -39 113 -63 141 -14 15 -13 17 4 17 24 1 52 22 75 57 18 26 17 27 -7 49
-30 28 -31 50 -2 57 18 5 19 8 8 22 -7 9 -22 21 -33 26 -16 9 -18 8 -13 -9 6
-17 3 -19 -21 -14 l-28 5 21 -24 c11 -13 25 -36 32 -52 11 -26 11 -27 -13 -21
-20 5 -24 3 -19 -10 4 -11 1 -16 -10 -16 -9 0 -16 -4 -16 -10 0 -5 5 -10 10
-10 23 0 8 -19 -20 -25 -36 -8 -37 -11 -7 -35 l22 -19 -33 -7 c-24 -5 -30 -10
-23 -17 27 -27 11 -36 -63 -34 -58 2 -78 -2 -93 -15 -15 -14 -22 -15 -31 -6
-9 9 -12 6 -12 -12 0 -21 -4 -18 -19 16 -10 22 -33 51 -50 65 -17 13 -54 43
-82 67 -44 37 -55 42 -100 42 -47 0 -53 -3 -92 -46 -39 -43 -44 -46 -84 -41
-22 2 -55 14 -72 26 -37 27 -54 23 -108 -27 -64 -57 -99 -82 -119 -82 -9 0
-15 3 -11 6 13 13 -23 34 -57 34 -28 0 -34 3 -29 16 4 12 0 14 -19 9 -18 -5
-27 -2 -31 9 -4 10 -19 16 -39 16 -41 0 -77 19 -38 20 24 1 24 1 5 12 -19 12
-18 13 10 19 27 5 28 7 10 14 -31 13 -85 55 -85 67 0 6 8 4 18 -5 10 -10 29
-17 43 -16 13 0 18 3 11 6 -6 2 -10 9 -6 14 3 5 0 9 -7 9 -9 0 -9 3 0 14 10
11 8 16 -8 21 -12 3 -25 3 -31 0 -5 -3 -10 -2 -10 4 0 5 12 11 28 13 27 3 26
3 -12 22 l-39 18 24 19 c13 10 42 21 64 25 37 6 38 7 16 16 -14 5 -31 6 -38 4
-7 -3 -23 -1 -35 3 -23 9 -23 9 4 16 15 4 32 13 38 20 7 9 31 11 78 9 47 -3
61 -1 47 5 -12 6 -15 10 -6 10 8 1 12 3 9 6 -3 3 -18 1 -33 -5 -24 -9 -31 -7
-56 17 -36 35 -36 43 -2 43 24 0 103 45 103 58 0 3 -12 18 -26 33 l-25 26 27
7 c22 6 25 9 13 17 -12 7 -11 9 3 9 9 0 20 -5 23 -10 4 -6 11 -8 16 -4 6 3 3
12 -8 20 -17 14 -16 15 6 8 16 -4 21 -3 17 5 -4 6 -14 11 -22 11 -8 0 -13 4
-9 10 3 5 13 6 23 3 13 -4 14 -3 6 6 -7 7 -22 9 -38 5 -28 -7 -34 -19 -13 -28
6 -4 -5 -4 -26 -2 -27 4 -36 1 -31 -7 4 -7 -6 0 -21 14 l-27 27 23 93 c16 67
20 94 11 97 -8 2 -7 11 5 29 14 21 23 24 60 21 37 -3 42 -1 37 14 -4 14 0 18
20 18 13 0 32 -7 40 -16z m720 -21 c-7 -16 -14 -36 -14 -46 0 -15 -2 -16 -14
-5 -10 9 -11 17 -4 26 8 9 6 12 -6 12 -14 0 -15 4 -6 20 6 11 21 20 35 20 23
0 23 -1 9 -27z m-303 -53 c-4 -19 -11 -34 -16 -32 -13 3 -14 64 -2 80 16 21
27 -7 18 -48z m449 -65 c14 -16 19 -109 7 -112 -4 -1 -19 -11 -34 -23 -34 -27
-43 -25 -43 8 0 17 -10 38 -25 52 -14 13 -25 29 -25 36 0 6 11 15 25 18 14 4
25 12 25 19 0 17 56 19 70 2z m-1143 -541 c-3 -3 -12 -4 -19 -1 -8 3 -5 6 6 6
11 1 17 -2 13 -5z m828 -199 c95 -54 153 -121 125 -149 -5 -5 -10 -19 -10 -31
0 -20 -29 -46 -64 -55 -36 -10 -43 -36 -17 -64 18 -19 22 -31 16 -53 -16 -66
-53 -70 -134 -14 -67 45 -110 57 -143 40 -21 -11 -22 -11 -9 5 24 29 -3 42
-30 15 -18 -18 -36 -24 -71 -25 -25 -1 -52 -5 -58 -9 -6 -4 -14 -4 -17 -1 -4
3 -1 6 5 6 6 0 16 9 22 21 14 25 -2 49 -33 49 -11 0 -17 3 -14 6 3 4 1 16 -5
28 -7 11 -15 39 -18 61 -4 30 -10 40 -23 39 -9 -1 -17 2 -17 6 0 15 40 43 63
43 15 0 30 9 40 26 36 57 32 56 71 32 30 -19 47 -22 98 -19 52 3 65 8 73 25
32 64 61 68 150 18z m-773 -67 c-8 -10 2 -13 42 -14 29 0 61 -4 71 -8 17 -6
17 -8 -3 -22 -27 -19 -28 -34 -2 -34 14 0 18 -5 13 -17 -6 -17 -5 -17 14 0 18
16 31 17 79 11 57 -7 57 -7 28 -20 l-29 -12 32 -1 c45 -1 49 -17 8 -31 -41
-13 -47 -30 -9 -22 41 8 26 -19 -26 -46 -56 -28 -66 -48 -20 -38 l33 6 -19
-21 c-27 -30 -65 -55 -94 -63 -14 -4 -4 5 23 20 53 31 62 47 18 34 -22 -6 -33
-4 -42 6 -13 16 -103 10 -129 -10 -13 -10 -13 -9 -1 7 22 28 4 33 -26 6 -25
-22 -26 -22 -9 -1 18 20 18 22 1 22 -13 0 -16 5 -11 24 4 16 1 26 -10 30 -8 3
-12 2 -9 -3 3 -5 2 -12 -3 -15 -15 -9 -10 28 7 48 15 18 15 19 -12 12 -31 -7
-31 -6 7 49 12 17 19 31 17 33 -4 5 58 82 66 82 3 0 1 -6 -5 -12z m1136 -102
c15 -8 34 -25 41 -39 17 -31 -2 -70 -56 -117 -21 -19 -36 -35 -33 -38 13 -10
-38 -24 -103 -27 -65 -4 -70 -3 -53 10 20 15 20 15 0 16 -11 0 -2 7 21 15 41
15 68 34 48 34 -6 0 -30 -7 -53 -15 -58 -20 -71 -8 -29 27 19 16 28 26 20 23
-7 -4 -30 -11 -50 -16 -33 -7 -34 -6 -17 7 11 8 25 14 30 14 6 0 3 7 -7 15
-18 13 -17 14 7 30 17 12 35 15 58 10 l33 -6 -25 20 -25 21 26 0 c14 0 43 -11
63 -25 20 -14 40 -25 43 -25 4 0 -4 11 -17 25 -13 14 -20 25 -15 25 4 0 0 9
-9 19 -17 19 -17 20 6 23 25 4 52 -3 96 -26z m54 -6 c14 -10 28 -16 32 -12 4
3 4 -1 0 -11 -9 -23 -16 -22 -49 13 -32 34 -21 40 17 10z m-887 -212 c42 -36
83 -40 168 -13 109 35 123 33 178 -21 71 -70 148 -77 217 -19 l28 24 89 -31
c55 -19 90 -26 94 -20 3 6 33 12 67 14 33 3 74 12 92 21 18 8 32 14 32 12 0
-2 -21 -24 -46 -48 -44 -41 -47 -48 -49 -97 -2 -50 -4 -54 -47 -85 -69 -50
-93 -96 -92 -175 0 -37 8 -84 18 -110 31 -78 31 -92 -3 -124 -29 -28 -31 -28
-75 -16 -25 7 -47 18 -50 25 -3 9 -26 11 -76 9 -58 -2 -75 -7 -86 -22 -17 -24
-58 -37 -50 -16 6 15 -9 20 -19 5 -3 -5 -37 -10 -75 -10 -85 0 -117 21 -127
84 -7 48 -22 72 -34 54 -6 -10 -11 -10 -23 0 -9 8 -16 10 -16 5 0 -4 -5 -3
-12 4 -14 14 -32 16 -23 3 3 -5 1 -12 -4 -16 -18 -11 -52 19 -77 68 -13 26
-27 47 -29 47 -3 0 -5 -17 -5 -37 0 -23 3 -33 8 -25 6 9 12 6 22 -13 19 -35
57 -58 85 -51 13 3 27 1 30 -4 4 -6 12 -10 18 -9 22 4 47 -13 47 -32 0 -15 -7
-19 -31 -19 -20 0 -28 -4 -23 -12 8 -12 -4 -7 -48 24 -22 15 -39 18 -82 14
-49 -5 -58 -3 -96 27 -24 18 -50 37 -59 42 -29 19 -39 40 -39 82 0 48 -18 87
-36 80 -19 -8 -41 85 -26 112 7 14 7 21 0 21 -15 0 -12 26 5 40 12 10 15 10
15 -4 0 -9 5 -16 10 -16 6 0 10 5 10 12 0 6 3 8 7 5 9 -9 54 33 47 44 -3 5 2
6 10 3 20 -8 20 3 1 23 -10 9 -13 24 -10 37 6 19 5 19 -14 -4 -19 -23 -21 -23
-21 -5 0 43 14 66 59 94 26 17 58 42 71 56 l23 25 16 -23 c8 -12 25 -30 36
-39z m-195 12 c0 -5 -7 -10 -15 -10 -8 0 -15 5 -15 10 0 6 7 10 15 10 8 0 15
-4 15 -10z m1419 -25 c33 -16 44 -37 46 -83 2 -31 1 -32 -16 -16 -22 20 -56
11 -65 -18 -5 -16 0 -27 16 -40 27 -22 34 -22 55 -2 14 15 18 15 40 0 38 -25
33 -66 -15 -143 -13 -19 -12 -27 7 -64 20 -39 20 -45 7 -71 -18 -35 -115 -102
-125 -86 -8 12 -29 -21 -29 -45 0 -10 -14 -18 -40 -22 -22 -4 -40 -11 -40 -16
0 -15 -36 -10 -50 6 -7 8 -18 15 -24 15 -6 0 -25 14 -43 30 -18 17 -39 30 -48
30 -25 0 -72 28 -89 52 -19 27 -21 75 -3 81 9 3 9 7 0 17 -17 18 11 70 37 70
23 0 100 73 100 95 0 8 7 15 15 15 8 0 15 5 15 10 0 6 -4 10 -10 10 -5 0 -10
13 -10 29 0 33 57 91 90 91 11 0 37 16 58 35 41 38 76 44 121 20z m139 -131
c-3 -36 -19 -12 -25 37 l-5 44 16 -28 c9 -16 15 -39 14 -53z m-1663 -111 c-4
-10 -11 -40 -15 -68 l-8 -50 -1 42 c-1 41 13 93 25 93 3 0 3 -8 -1 -17z m-80
-243 c-3 -5 -2 -10 4 -10 5 0 11 5 13 11 2 6 11 -5 20 -25 13 -26 14 -34 4
-30 -15 6 -29 -22 -20 -39 3 -7 -1 -4 -10 7 -14 17 -13 20 7 37 l22 18 -22 -6
c-14 -3 -23 -1 -23 6 0 6 -15 11 -32 12 l-33 1 30 13 c36 17 48 18 40 5z m-55
-42 c0 -7 5 -6 15 2 8 6 19 9 25 5 18 -11 11 -25 -13 -25 -13 0 -28 -5 -34
-11 -7 -7 -18 -4 -37 13 l-27 23 36 2 c19 1 35 -3 35 -9z m45 -59 c0 -28 -23
-32 -39 -6 -8 14 -8 20 4 27 22 14 35 6 35 -21z m92 -49 c2 0 1 -4 -2 -10 -9
-14 -47 -12 -69 5 -30 23 -10 37 31 20 19 -8 37 -15 40 -15z m1173 -27 c-42
-35 -71 -52 -90 -52 -8 0 1 8 20 19 19 10 49 30 65 44 41 33 45 24 5 -11z
m-900 -53 c7 -13 5 -22 -7 -31 -15 -12 -16 -11 -11 9 7 25 -7 30 -16 5 -6 -14
-8 -14 -21 3 -19 25 -19 32 3 36 24 6 41 -1 52 -22z m47 -31 c-28 -7 -26 -9
-20 25 l6 29 18 -24 c18 -23 18 -24 -4 -30z m58 31 c0 -7 -6 -15 -12 -17 -8
-3 -13 4 -13 17 0 13 5 20 13 18 6 -3 12 -11 12 -18z m525 -24 c0 -20 -26 -40
-35 -26 -5 8 -13 6 -25 -5 -29 -26 -46 -7 -19 21 25 27 79 33 79 10z m109 -8
c-9 -17 -49 -40 -57 -33 -1 1 2 14 7 27 7 18 17 26 35 26 22 0 24 -3 15 -20z
m-80 -27 c-14 -32 -29 -41 -29 -18 0 16 30 60 37 53 3 -3 -1 -19 -8 -35z"/>
<path d="M1055 2382 c20 -24 20 -24 -4 -43 -13 -10 -19 -19 -14 -19 6 0 18 9
28 20 18 20 18 21 -5 43 l-24 22 19 -23z"/>
<path d="M1314 2386 c-19 -15 -19 -15 0 -12 11 2 22 8 24 14 5 16 0 15 -24 -2z"/>
<path d="M1359 2362 c6 -12 16 -24 22 -28 8 -4 8 -1 0 14 -6 12 -16 24 -22 28
-8 4 -8 1 0 -14z"/>
<path d="M1290 2316 c0 -2 8 -10 18 -17 15 -13 16 -12 3 4 -13 16 -21 21 -21
13z"/>
<path d="M1375 2310 c-3 -5 -1 -10 4 -10 6 0 11 5 11 10 0 6 -2 10 -4 10 -3 0
-8 -4 -11 -10z"/>
<path d="M2026 2104 c-21 -20 -20 -27 4 -49 19 -17 21 -17 40 0 11 10 20 22
20 26 0 10 -29 39 -40 39 -5 0 -16 -7 -24 -16z m44 -10 c11 -12 10 -18 -3 -32
-16 -15 -18 -15 -34 0 -13 14 -14 20 -3 32 7 9 16 16 20 16 4 0 13 -7 20 -16z"/>
<path d="M417 2050 c-14 -16 -34 -30 -44 -30 -21 0 -33 -8 -53 -35 -14 -19
-14 -20 6 -2 11 9 33 17 48 17 19 0 30 7 38 25 13 30 52 43 73 25 8 -7 18 -30
21 -50 5 -32 11 -39 35 -44 15 -3 33 -15 40 -27 10 -20 8 -25 -11 -41 -12 -10
-28 -18 -35 -18 -23 0 -46 -31 -40 -52 16 -48 -51 -65 -83 -21 l-19 26 -23
-21 c-25 -23 -46 -27 -69 -13 -12 8 -13 16 -3 48 12 39 6 87 -9 78 -4 -3 -8
-22 -8 -43 0 -20 -2 -48 -3 -61 -2 -18 4 -29 25 -40 25 -15 30 -15 58 2 31 17
32 17 45 -1 33 -48 114 -20 114 39 0 23 6 31 33 42 17 8 38 21 46 31 20 23 -1
65 -39 79 -18 7 -30 19 -30 30 0 31 -28 74 -52 81 -34 9 -34 9 -61 -24z"/>
<path d="M2113 1958 c-6 -7 -13 -22 -15 -33 -3 -11 -9 -28 -13 -37 -4 -11 -3
-18 4 -18 5 0 15 18 21 40 14 53 47 55 85 6 17 -22 37 -36 60 -40 34 -7 65
-29 65 -47 0 -6 -3 -8 -8 -5 -4 2 -15 -2 -25 -9 -17 -12 -17 -15 -3 -38 15
-22 15 -26 -4 -50 -11 -14 -19 -31 -18 -38 5 -23 -33 -21 -58 1 l-23 23 -37
-33 -38 -33 -18 23 c-10 12 -18 37 -18 56 0 28 -4 35 -25 40 -14 4 -24 9 -21
12 9 8 -15 33 -25 26 -5 -3 -9 -1 -9 5 0 14 30 41 58 52 14 5 22 12 19 16 -12
11 -68 -20 -82 -46 -16 -32 -6 -55 35 -76 23 -12 30 -24 36 -60 10 -68 48 -80
101 -32 22 19 22 19 49 -2 45 -35 81 -22 88 31 5 38 36 99 46 93 6 -3 7 1 4
10 -5 11 -10 13 -19 5 -6 -5 -15 -7 -18 -3 -4 3 1 12 10 18 16 12 16 14 0 38
-9 15 -34 31 -54 38 -24 7 -45 23 -58 43 -22 34 -73 48 -92 24z m-98 -168 c3
-5 1 -10 -4 -10 -6 0 -11 5 -11 10 0 6 2 10 4 10 3 0 8 -4 11 -10z"/>
<path d="M325 1638 c-61 -24 -92 -51 -100 -89 -4 -16 -14 -33 -23 -38 -9 -5
-23 -28 -30 -51 -13 -42 -12 -43 30 -106 45 -69 71 -84 110 -63 59 31 87 62
104 112 10 31 30 65 50 83 28 26 34 39 34 74 0 33 -6 48 -29 71 -35 35 -72 37
-146 7z m128 -16 c9 -10 20 -32 23 -49 5 -26 -1 -37 -40 -82 -27 -30 -46 -61
-46 -75 0 -31 -62 -86 -96 -86 -38 0 -83 51 -76 87 2 15 9 34 15 41 7 9 7 16
0 23 -8 8 -7 19 3 37 8 15 14 33 14 41 0 11 3 11 14 2 11 -9 20 -10 35 -1 24
12 27 25 9 36 -17 11 58 43 98 44 17 0 38 -8 47 -18z m-250 -192 c-3 -12 -8
-19 -11 -16 -5 6 5 36 12 36 2 0 2 -9 -1 -20z"/>
<path d="M366 1572 c-3 -6 -1 -14 5 -17 15 -10 25 3 12 16 -7 7 -13 7 -17 1z"/>
<path d="M408 1508 c-58 -59 -64 -88 -7 -33 38 38 65 74 57 79 -2 1 -24 -20
-50 -46z"/>
<path d="M304 1505 c-8 -19 3 -35 26 -35 22 0 33 23 17 39 -15 15 -37 14 -43
-4z"/>
<path d="M244 1405 c-8 -20 4 -35 26 -35 25 0 35 17 20 35 -16 19 -39 19 -46
0z"/>
<path d="M2354 1579 c-40 -30 -43 -30 -67 -14 -23 15 -28 15 -56 1 -18 -10
-35 -30 -42 -51 -7 -19 -17 -35 -21 -35 -17 0 -48 -41 -48 -63 0 -13 9 -32 20
-42 l20 -18 -20 -14 c-11 -8 -20 -24 -20 -37 0 -24 38 -66 59 -66 7 0 9 -5 5
-11 -4 -7 1 -7 16 1 12 6 22 10 23 8 39 -78 70 -94 116 -60 22 16 37 20 65 15
35 -6 36 -5 35 28 0 30 -1 32 -9 12 -10 -24 -25 -30 -35 -13 -11 18 -39 11
-60 -15 -42 -51 -105 -1 -76 62 10 21 9 28 -6 39 -10 7 -22 13 -28 13 -5 0 -2
-6 9 -14 30 -22 13 -45 -33 -45 -30 0 -43 5 -51 19 -16 31 -12 47 15 59 31 14
32 24 3 37 -35 15 -34 50 0 75 17 12 32 35 35 50 12 56 63 79 90 40 14 -20 14
-20 43 6 51 44 63 48 74 22 9 -22 10 -21 7 6 -3 40 -15 41 -63 5z"/>
<path d="M2425 1470 c-3 -5 -1 -10 4 -10 6 0 11 5 11 10 0 6 -2 10 -4 10 -3 0
-8 -4 -11 -10z"/>
<path d="M2291 1427 c-9 -11 -8 -17 4 -27 19 -16 47 -5 43 17 -4 23 -31 28
-47 10z"/>
<path d="M465 1380 c-3 -6 1 -7 9 -4 18 7 21 14 7 14 -6 0 -13 -4 -16 -10z"/>
<path d="M509 1378 c19 -25 6 -52 -21 -45 -15 4 -18 3 -10 -5 6 -6 18 -8 27
-5 25 10 30 37 9 55 -17 16 -17 16 -5 0z"/>
<path d="M162 1205 c-32 -27 -57 -76 -49 -97 2 -7 12 5 21 27 22 53 44 75 73
75 14 0 21 4 18 10 -10 17 -32 11 -63 -15z"/>
<path d="M240 1214 c1 -14 40 -60 40 -46 0 15 54 16 81 2 10 -6 19 -21 19 -33
0 -17 10 -28 35 -40 28 -13 35 -22 35 -45 0 -35 -16 -52 -49 -52 -23 0 -26 -4
-28 -42 -5 -77 -58 -103 -93 -45 -16 26 -20 28 -20 11 0 -11 -16 -37 -35 -58
-19 -21 -35 -40 -35 -42 0 -11 22 -1 48 20 34 30 68 25 76 -10 7 -26 20 -31
32 -12 4 6 3 8 -4 4 -6 -3 -14 -1 -18 5 -5 9 4 10 32 4 46 -8 40 4 -8 15 l-33
8 32 1 c37 1 138 75 127 93 -5 8 -1 9 10 5 10 -4 15 -3 11 4 -4 5 -2 16 5 23
12 16 10 85 -3 93 -5 3 -6 -11 -3 -33 6 -35 4 -43 -21 -65 -15 -15 -41 -35
-57 -45 l-29 -18 8 24 c4 14 8 25 9 25 88 34 100 101 26 143 -23 13 -30 23
-27 39 2 12 1 21 -2 20 -3 -1 -18 7 -33 17 -19 12 -39 17 -60 13 -22 -3 -39 1
-50 11 -10 8 -18 11 -18 6z m174 -309 c-4 -8 -11 -15 -16 -15 -6 0 -5 6 2 15
7 8 14 15 16 15 2 0 1 -7 -2 -15z"/>
<path d="M176 1075 c-6 -17 17 -31 34 -20 5 3 10 13 10 21 0 19 -36 18 -44 -1z"/>
<path d="M2250 1056 c0 -2 7 -7 16 -10 8 -3 12 -2 9 4 -6 10 -25 14 -25 6z"/>
<path d="M245 950 c-10 -11 -15 -20 -11 -20 4 0 16 9 28 20 12 11 17 20 11 20
-5 0 -18 -9 -28 -20z"/>
<path d="M606 949 c12 -13 23 -31 26 -38 4 -13 5 -13 10 0 3 8 -8 24 -26 38
l-31 25 21 -25z"/>
<path d="M151 943 c-1 -7 6 -30 15 -52 15 -37 17 -39 34 -23 11 8 17 19 14 24
-3 4 0 8 5 8 6 0 11 5 11 12 0 6 -11 1 -25 -12 l-24 -23 -9 24 c-5 13 -12 31
-15 39 -3 9 -6 10 -6 3z"/>
<path d="M535 900 c-10 -15 4 -50 20 -50 17 0 36 32 27 46 -10 13 -39 16 -47
4z"/>
<path d="M540 530 c-23 -7 -23 -8 -3 -9 12 -1 25 4 28 9 3 6 5 10 3 9 -2 -1
-14 -5 -28 -9z"/>
<path d="M1565 2069 c-11 -17 1 -21 15 -4 8 9 8 15 2 15 -6 0 -14 -5 -17 -11z"/>
<path d="M835 2010 c3 -5 16 -10 28 -10 18 0 19 2 7 10 -20 13 -43 13 -35 0z"/>
<path d="M1438 1863 c-30 -5 -48 -42 -48 -100 0 -49 14 -68 62 -88 109 -44
179 11 144 112 -22 65 -73 89 -158 76z m62 -68 c0 -9 -9 -15 -25 -15 -29 0
-34 16 -7 23 30 8 32 7 32 -8z"/>
<path d="M945 1819 c-26 -23 -35 -39 -35 -63 0 -18 -4 -36 -10 -42 -6 -6 -2
-21 11 -43 20 -33 21 -34 76 -28 87 9 122 54 102 130 -6 23 -18 50 -26 60 -26
28 -77 22 -118 -14z"/>
<path d="M1396 1661 c2 -2 -1 -10 -7 -17 -8 -9 0 -8 22 3 46 22 46 23 11 20
-17 -1 -28 -4 -26 -6z"/>
<path d="M1930 1660 c0 -5 5 -10 11 -10 5 0 7 5 4 10 -3 6 -8 10 -11 10 -2 0
-4 -4 -4 -10z"/>
<path d="M1443 1617 c-24 -17 -41 -33 -38 -35 3 -3 13 2 23 11 10 10 23 17 29
17 5 0 18 9 28 20 26 29 6 23 -42 -13z"/>
<path d="M999 1619 c-17 -5 -9 -7 26 -8 28 0 56 3 64 8 16 10 -53 10 -90 0z"/>
<path d="M1085 1600 c-3 -6 1 -7 9 -4 18 7 21 14 7 14 -6 0 -13 -4 -16 -10z"/>
<path d="M1488 1593 c12 -2 30 -2 40 0 9 3 -1 5 -23 4 -22 0 -30 -2 -17 -4z"/>
<path d="M1190 1581 c0 -6 14 -18 31 -26 44 -23 37 -62 -16 -93 -39 -23 -40
-24 -9 -18 17 3 35 1 41 -5 10 -10 73 7 73 21 0 4 -11 15 -25 24 -14 9 -25 25
-25 35 0 10 11 26 25 35 14 9 25 22 25 28 0 6 -8 4 -18 -5 -23 -21 -51 -22
-80 -1 -12 8 -22 10 -22 5z"/>
<path d="M953 1570 c-13 -5 -23 -12 -23 -15 0 -4 10 -3 23 1 12 4 40 11 62 15
l40 6 -40 1 c-22 0 -50 -3 -62 -8z"/>
<path d="M733 1520 c-37 -15 -26 -29 12 -16 19 7 38 15 41 19 10 10 -27 7 -53
-3z"/>
<path d="M1330 1335 c-10 -12 -9 -16 5 -21 19 -8 40 9 31 25 -10 15 -21 14
-36 -4z"/>
<path d="M1425 1310 c-18 -20 -18 -21 3 -43 18 -17 26 -19 40 -11 24 16 27 45
6 61 -24 17 -28 17 -49 -7z"/>
<path d="M1190 1275 c0 -10 7 -15 18 -13 21 4 19 22 -2 26 -10 2 -16 -3 -16
-13z"/>
<path d="M1041 1236 c-16 -19 -11 -46 12 -60 15 -9 22 -7 38 13 11 13 18 31
17 40 -4 21 -51 26 -67 7z"/>
<path d="M1268 1219 c-22 -12 -23 -42 -3 -59 35 -29 85 26 53 58 -14 14 -27
15 -50 1z"/>
<path d="M1394 1199 c-3 -6 -2 -15 4 -21 13 -13 32 -2 32 18 0 16 -26 19 -36
3z"/>
<path d="M1465 1200 c3 -5 11 -10 16 -10 6 0 7 5 4 10 -3 6 -11 10 -16 10 -6
0 -7 -4 -4 -10z"/>
<path d="M1160 1130 c0 -5 5 -10 10 -10 6 0 10 5 10 10 0 6 -4 10 -10 10 -5 0
-10 -4 -10 -10z"/>
<path d="M1450 1000 c0 -5 5 -10 10 -10 6 0 10 5 10 10 0 6 -4 10 -10 10 -5 0
-10 -4 -10 -10z"/>
<path d="M1635 900 c3 -5 13 -10 21 -10 7 0 33 -17 56 -37 l43 -38 -30 36
c-28 35 -64 59 -86 59 -6 0 -7 -4 -4 -10z"/>
<path d="M1599 853 c10 -21 49 -49 55 -41 2 2 -13 16 -32 33 -30 25 -33 26
-23 8z"/>
<path d="M875 814 c-16 -24 -16 -26 1 -22 9 1 19 13 20 26 5 29 0 28 -21 -4z"/>
<path d="M735 698 c-16 -15 -25 -28 -19 -28 12 0 60 48 53 53 -2 2 -17 -10
-34 -25z"/>
<path d="M913 541 c-12 -20 -7 -61 8 -61 5 0 9 18 9 40 0 46 -1 47 -17 21z"/>
<path d="M1587 525 c7 -49 13 -58 13 -19 0 16 -5 36 -10 44 -6 10 -7 2 -3 -25z"/>
<path d="M1561 535 c1 -19 18 -51 18 -35 0 8 -4 22 -9 30 -5 8 -9 11 -9 5z"/>
<path d="M1431 433 c0 -12 4 -25 10 -28 12 -8 49 22 49 39 0 6 -5 3 -11 -6 -5
-10 -16 -18 -24 -18 -7 0 -16 8 -18 18 -4 13 -5 12 -6 -5z"/>
<path d="M2138 923 c7 -3 16 -2 19 1 4 3 -2 6 -13 5 -11 0 -14 -3 -6 -6z"/>
<path d="M2090 870 c0 -5 5 -10 10 -10 6 0 10 5 10 10 0 6 -4 10 -10 10 -5 0
-10 -4 -10 -10z"/>
<path d="M2000 805 c-26 -32 13 -81 48 -59 34 22 22 74 -18 74 -10 0 -23 -7
-30 -15z"/>
<path d="M2220 750 c0 -5 5 -10 10 -10 6 0 10 5 10 10 0 6 -4 10 -10 10 -5 0
-10 -4 -10 -10z"/>
<path d="M2090 741 c0 -5 5 -13 10 -16 6 -3 10 -2 10 4 0 5 -4 13 -10 16 -5 3
-10 2 -10 -4z"/>
<path d="M2144 729 c-10 -17 13 -36 27 -22 12 12 4 33 -11 33 -5 0 -12 -5 -16
-11z"/>
<path d="M2240 700 c0 -5 4 -10 9 -10 6 0 13 5 16 10 3 6 -1 10 -9 10 -9 0
-16 -4 -16 -10z"/>
<path d="M1903 675 c-3 -9 -3 -18 0 -21 9 -9 27 6 27 22 0 19 -19 18 -27 -1z"/>
<path d="M2032 668 c-28 -28 -3 -85 32 -72 22 8 31 50 16 69 -15 18 -32 19
-48 3z"/>
<path d="M2202 658 c5 -15 28 -18 29 -3 0 6 -7 12 -17 13 -10 3 -15 -1 -12
-10z"/>
<path d="M1836 581 c-23 -25 -6 -61 29 -61 35 0 52 36 29 61 -9 10 -22 19 -29
19 -7 0 -20 -9 -29 -19z"/>
<path d="M1936 592 c-3 -6 -1 -14 5 -17 15 -10 25 3 12 16 -7 7 -13 7 -17 1z"/>
<path d="M2230 590 c0 -5 5 -10 10 -10 6 0 10 5 10 10 0 6 -4 10 -10 10 -5 0
-10 -4 -10 -10z"/>
<path d="M2168 585 c-8 -9 6 -58 18 -62 5 -1 18 4 29 13 15 11 17 18 9 32 -11
17 -45 28 -56 17z"/>
<path d="M2080 550 c0 -5 5 -10 10 -10 6 0 10 5 10 10 0 6 -4 10 -10 10 -5 0
-10 -4 -10 -10z"/>
<path d="M2046 495 c-20 -20 -20 -39 -2 -55 35 -28 93 11 70 48 -15 23 -48 27
-68 7z"/>
<path d="M1905 480 c-10 -17 12 -37 25 -24 8 8 6 15 -4 23 -10 9 -16 9 -21 1z"/>
</g>
</svg>
